<svg width="34" height="34" viewBox="0 0 34 34" fill="none" xmlns="http://www.w3.org/2000/svg">
<path d="M34 17C34 16.1365 28.6302 15.4079 21.3534 15.2011C26.3545 9.90317 29.6286 5.59471 29.0169 4.98307C28.4053 4.37143 24.0968 7.6545 18.7989 12.6466C18.5921 5.36984 17.8635 0 17 0C16.1365 0 15.4079 5.36984 15.2011 12.6466C9.90317 7.6455 5.59471 4.37143 4.98307 4.98307C4.37143 5.59471 7.6545 9.90317 12.6466 15.2011C5.36984 15.4079 0 16.1365 0 17C0 17.8635 5.36984 18.5921 12.6466 18.7989C7.6455 24.0968 4.37143 28.4053 4.98307 29.0169C5.59471 29.6286 9.90317 26.3455 15.2011 21.3534C15.4079 28.6302 16.1365 34 17 34C17.8635 34 18.5921 28.6302 18.7989 21.3534C24.0968 26.3545 28.4053 29.6286 29.0169 29.0169C29.6286 28.4053 26.3455 24.0968 21.3534 18.7989C28.6302 18.5921 34 17.8635 34 17Z" fill="#34566F"/>
</svg>
