<svg width="63" height="63" viewBox="0 0 63 63" fill="none" xmlns="http://www.w3.org/2000/svg">
<path d="M14.2256 20.7173H1.06128V62.6979H14.2256V20.7173Z" fill="#34566F"/>
<path d="M49.8367 19.8063C49.3514 19.7456 48.8357 19.7153 48.3201 19.6849C40.9493 19.3816 36.7937 23.7495 35.3378 25.6302C34.9435 26.1458 34.7615 26.4492 34.7615 26.4492V20.8376H22.1735V62.8182H34.7615H35.3378C35.3378 58.5413 35.3378 54.2947 35.3378 50.0177C35.3378 47.7125 35.3378 45.4072 35.3378 43.1019C35.3378 40.2506 35.1255 37.2173 36.5511 34.6087C37.7644 32.4247 39.9483 31.3327 42.4052 31.3327C49.685 31.3327 49.8367 37.915 49.8367 38.5216C49.8367 38.5519 49.8367 38.5823 49.8367 38.5823V63.0002H63.001V35.6097C63.001 26.2368 58.2388 20.7163 49.8367 19.8063Z" fill="#34566F"/>
<path d="M7.64378 15.2877C11.8653 15.2877 15.2876 11.8655 15.2876 7.64386C15.2876 3.42227 11.8653 0 7.64378 0C3.42223 0 0 3.42227 0 7.64386C0 11.8655 3.42223 15.2877 7.64378 15.2877Z" fill="#34566F"/>
</svg>
