<svg width="85" height="72" viewBox="0 0 85 72" fill="none" xmlns="http://www.w3.org/2000/svg">
<path d="M51.4789 23.1425C57.1479 22.0378 67.6762 22.9768 64.4367 35.5712C68.7559 33.914 77.2324 34.0798 76.5846 48" stroke="#34566F" stroke-width="3" stroke-linecap="round" stroke-linejoin="round"/>
<path d="M57.698 49.4496C56.4529 50.3136 55.2845 50.7456 54.1926 50.7456C53.1008 50.7456 52.325 50.4864 51.8653 49.968C51.4248 49.4496 51.2045 48.768 51.2045 47.9232C51.2045 47.0784 51.6546 44.9088 52.5549 41.4144C53.4552 37.9008 53.9053 35.7216 53.9053 34.8768C53.9053 33.8208 53.5318 33.2928 52.7848 33.2928C52.0377 33.2928 51.0225 33.8496 49.7391 34.9632C49.7008 35.1168 49.3848 36.288 48.791 38.4768C47.4884 43.2768 46.7893 47.1456 46.6935 50.0832C45.9464 50.3712 44.596 50.5152 42.6422 50.5152H42.2687C42.2687 49.3248 42.7763 46.5792 43.7915 42.2784C44.8067 37.9776 45.3143 35.472 45.3143 34.7616C45.3143 33.7824 44.9217 33.2928 44.1363 33.2928C43.2935 33.2928 42.1921 33.888 40.8321 35.0784C40.8321 38.9952 40.1425 42.6624 38.7634 46.08C38.1121 47.6928 37.2597 49.008 36.2062 50.0256C35.1718 51.024 34.0991 51.5232 32.9881 51.5232C31.8963 51.5232 31.0343 51.1872 30.4022 50.5152C29.7893 49.8624 29.4828 48.9504 29.4828 47.7792C29.4828 46.5888 29.9042 45.1968 30.747 43.6032C31.5898 41.9904 32.4805 40.6176 33.4191 39.4848C34.3769 38.3328 35.3538 37.296 36.3498 36.3744C36.3498 34.608 36.1391 33.5424 35.7177 33.1776C35.507 33.0048 35.2005 32.9184 34.7983 32.9184C34.4152 32.9184 33.8405 33.0912 33.0743 33.4368C32.3273 33.7824 31.609 34.2528 30.9194 34.848L30.2011 33.84C30.8715 33.0144 31.8772 32.2176 33.2179 31.4496C34.5588 30.6816 35.7464 30.2976 36.7808 30.2976C37.8343 30.2976 38.658 30.576 39.2518 31.1328C39.8648 31.6704 40.2957 32.3616 40.5448 33.2064C43.1881 31.0368 45.276 29.952 46.8084 29.952C47.5746 29.952 48.2259 30.192 48.7622 30.672C49.3177 31.152 49.6721 31.872 49.8253 32.832C52.0856 30.912 53.9724 29.952 55.4856 29.952C56.3284 29.952 57.0372 30.288 57.6118 30.96C58.2056 31.632 58.5025 32.544 58.5025 33.696C58.5025 34.8288 58.0332 37.1232 57.0946 40.5792C56.156 44.0352 55.6867 46.224 55.6867 47.1456C55.6867 48.048 55.9741 48.4992 56.5487 48.4992C56.7403 48.4992 56.9797 48.4512 57.267 48.3552L57.698 49.4496ZM32.4422 48.7872C33.2084 48.7872 33.965 47.8368 34.7121 45.936C35.4783 44.016 35.9955 41.616 36.2636 38.736C35.0377 40.0032 33.9363 41.5104 32.9594 43.2576C31.9825 44.9856 31.4941 46.3392 31.4941 47.3184C31.4941 48.2976 31.8101 48.7872 32.4422 48.7872ZM61.7891 50.7456C61.1187 50.7456 60.6015 50.544 60.2376 50.1408C59.8736 49.7376 59.6917 49.2 59.6917 48.528C59.6917 47.856 59.9407 47.28 60.4387 46.8C60.9367 46.3008 61.521 46.0512 62.1914 46.0512C62.881 46.0512 63.4077 46.2528 63.7717 46.656C64.1356 47.04 64.3176 47.568 64.3176 48.24C64.3176 48.8928 64.059 49.4784 63.5418 49.9968C63.0438 50.496 62.4596 50.7456 61.7891 50.7456Z" fill="#34566F"/>
<path d="M7.68798 49.2C6.02831 40.8097 7.52202 25.1658 26.7742 29.7128C25.1145 21.5932 26.7742 6.32812 46.6901 10.2256" stroke="#34566F" stroke-width="3" stroke-linecap="round" stroke-linejoin="round"/>
<path d="M20.4893 42.0342C20.1521 42.3522 19.7148 42.5359 19.274 42.5452C18.8332 42.5544 18.4249 42.3882 18.1388 42.0833C17.8526 41.7784 17.7122 41.3596 17.7484 40.9192C17.7845 40.4786 17.9943 40.0526 18.3316 39.7346C18.6689 39.4166 19.106 39.2328 19.5468 39.2237C19.9876 39.2144 20.396 39.3805 20.6822 39.6856C20.9683 39.9905 21.1087 40.4092 21.0726 40.8497C21.0364 41.2901 20.8265 41.7162 20.4893 42.0342Z" stroke="#34566F" stroke-width="1.5" stroke-linejoin="round"/>
<path d="M23.8687 40.1464C24.9929 39.0865 25.1964 37.3448 24.2427 36.3284C23.289 35.312 21.5418 35.4095 20.4186 36.4684C20.1306 35.9033 19.629 35.4882 19.0119 35.3044C18.3948 35.1205 17.7069 35.1814 17.0831 35.4749C16.4594 35.7683 15.9447 36.2734 15.6402 36.8908C15.3357 37.5082 15.2634 38.1934 15.4373 38.8121C15.0731 38.8733 14.7177 39.0074 14.3933 39.2062C14.0687 39.4049 13.782 39.6638 13.5507 39.9672C13.3193 40.2707 13.1484 40.6118 13.0483 40.9699C12.9484 41.3279 12.9216 41.6951 12.9693 42.0487C13.0172 42.4024 13.1387 42.7349 13.3266 43.0258C13.5143 43.3168 13.7643 43.5599 14.061 43.7401C14.3577 43.9204 14.6949 44.0339 15.0517 44.0737C15.4085 44.1136 15.7773 44.0788 16.1353 43.9717C16.0066 44.3232 15.9495 44.69 15.9673 45.0494C15.9852 45.4088 16.0776 45.7531 16.2388 46.061C16.4001 46.369 16.627 46.634 16.9051 46.8396C17.1833 47.0453 17.507 47.1874 17.8562 47.2568C18.2054 47.3263 18.5727 47.3219 18.9354 47.2439C19.298 47.1658 19.6482 47.0156 19.9645 46.8028C20.2808 46.5899 20.5562 46.3188 20.774 46.0063C20.9918 45.6938 21.147 45.3466 21.2304 44.986C21.7825 45.1775 22.4034 45.1682 22.9908 44.9599C23.5782 44.7515 24.0971 44.3564 24.4622 43.8396C24.8272 43.3226 25.0165 42.715 24.999 42.1164C24.9814 41.5177 24.7581 40.964 24.3657 40.5463C24.2161 40.3868 24.0505 40.2535 23.8687 40.1464Z" stroke="#34566F" stroke-width="1.5" stroke-linejoin="round"/>
<path d="M41.7454 21.9649C41.5241 22.324 41.1338 22.558 40.6603 22.6156C40.1868 22.673 39.6689 22.5494 39.2207 22.2718C38.7723 21.9941 38.4304 21.5852 38.2699 21.135C38.1095 20.6848 38.1437 20.2302 38.3649 19.8712C38.5863 19.5121 38.9767 19.278 39.4502 19.2205C39.9237 19.1629 40.4416 19.2866 40.8898 19.5643C41.338 19.8419 41.6801 20.2508 41.8405 20.7011C42.001 21.1512 41.9668 21.6059 41.7454 21.9649Z" stroke="#34566F" stroke-width="1.5" stroke-linejoin="round"/>
<path d="M43.2266 15.7736C44.7208 16.6992 45.2897 18.486 44.5519 19.6826C44.7974 19.7714 45.0373 19.8883 45.2717 20.0335C45.8862 20.4138 46.3792 20.9504 46.6696 21.555C46.9599 22.1596 47.0303 22.796 46.869 23.3596C46.7077 23.9231 46.3246 24.3802 45.7826 24.6556C45.2405 24.931 44.5719 25.0081 43.8867 24.8746C43.96 25.249 43.9491 25.6178 43.8547 25.9583C43.7605 26.2987 43.5848 26.6034 43.3386 26.8536C43.0924 27.1039 42.7809 27.2944 42.4234 27.413C42.0658 27.5318 41.6699 27.5766 41.26 27.5443C40.85 27.512 40.4349 27.4037 40.0402 27.2257C39.6456 27.0478 39.2797 26.804 38.9653 26.5097C38.6509 26.2153 38.3947 25.8767 38.2125 25.5145C38.0303 25.1524 37.926 24.7745 37.9059 24.4042C37.5667 24.5519 37.1828 24.6274 36.7782 24.626C36.3734 24.6247 35.9567 24.5465 35.5534 24.3964C35.1501 24.2462 34.7691 24.0272 34.4337 23.753C34.0984 23.4788 33.8159 23.1552 33.6037 22.8022C33.3917 22.4491 33.2544 22.0741 33.2004 21.7006C33.1465 21.3269 33.1771 20.9624 33.2902 20.6298C33.4033 20.297 33.5967 20.0033 33.8583 19.7665C34.1197 19.5296 34.444 19.3549 34.8109 19.253C34.3419 18.6452 34.1098 17.943 34.1598 17.2842C34.21 16.6254 34.5387 16.0574 35.0815 15.6919C35.6245 15.3263 36.3423 15.1895 37.0942 15.3082C37.8463 15.427 38.578 15.7927 39.1462 16.3337C39.8833 15.1381 41.7324 14.8482 43.2266 15.7736Z" stroke="#34566F" stroke-width="1.5" stroke-linejoin="round"/>
<path d="M27.4155 61.32H76.7394" stroke="#34566F" stroke-width="1.8" stroke-linecap="round"/>
<path d="M8.26056 56.52H68.3591" stroke="#34566F" stroke-width="1.8" stroke-linecap="round"/>
</svg>
