<svg width="71" height="60" viewBox="0 0 71 60" fill="none" xmlns="http://www.w3.org/2000/svg">
<path d="M43 19.2854C47.7353 18.3648 56.5295 19.1473 53.8236 29.6427C57.4314 28.2617 64.5118 28.3998 63.9707 40" stroke="#8AA8BF" stroke-width="3" stroke-linecap="round" stroke-linejoin="round"/>
<path d="M48.1948 41.208C47.1548 41.928 46.1788 42.288 45.2668 42.288C44.3548 42.288 43.7068 42.072 43.3228 41.64C42.9548 41.208 42.7708 40.64 42.7708 39.936C42.7708 39.232 43.1468 37.424 43.8988 34.512C44.6508 31.584 45.0268 29.768 45.0268 29.064C45.0268 28.184 44.7148 27.744 44.0908 27.744C43.4668 27.744 42.6188 28.208 41.5468 29.136C41.5148 29.264 41.2508 30.24 40.7548 32.064C39.6668 36.064 39.0828 39.288 39.0028 41.736C38.3788 41.976 37.2508 42.096 35.6188 42.096H35.3068C35.3068 41.104 35.7308 38.816 36.5788 35.232C37.4268 31.648 37.8508 29.56 37.8508 28.968C37.8508 28.152 37.5228 27.744 36.8668 27.744C36.1628 27.744 35.2428 28.24 34.1068 29.232C34.1068 32.496 33.5308 35.552 32.3788 38.4C31.8348 39.744 31.1228 40.84 30.2428 41.688C29.3788 42.52 28.4828 42.936 27.5548 42.936C26.6428 42.936 25.9228 42.656 25.3948 42.096C24.8828 41.552 24.6268 40.792 24.6268 39.816C24.6268 38.824 24.9788 37.664 25.6828 36.336C26.3868 34.992 27.1308 33.848 27.9148 32.904C28.7148 31.944 29.5308 31.08 30.3628 30.312C30.3628 28.84 30.1868 27.952 29.8348 27.648C29.6588 27.504 29.4028 27.432 29.0668 27.432C28.7468 27.432 28.2668 27.576 27.6268 27.864C27.0028 28.152 26.4028 28.544 25.8268 29.04L25.2268 28.2C25.7868 27.512 26.6268 26.848 27.7467 26.208C28.8668 25.568 29.8588 25.248 30.7228 25.248C31.6028 25.248 32.2908 25.48 32.7868 25.944C33.2988 26.392 33.6588 26.968 33.8668 27.672C36.0748 25.864 37.8188 24.96 39.0988 24.96C39.7388 24.96 40.2828 25.16 40.7308 25.56C41.1948 25.96 41.4908 26.56 41.6188 27.36C43.5068 25.76 45.0828 24.96 46.3468 24.96C47.0508 24.96 47.6428 25.24 48.1228 25.8C48.6188 26.36 48.8668 27.12 48.8668 28.08C48.8668 29.024 48.4748 30.936 47.6908 33.816C46.9068 36.696 46.5148 38.52 46.5148 39.288C46.5148 40.04 46.7548 40.416 47.2348 40.416C47.3948 40.416 47.5948 40.376 47.8348 40.296L48.1948 41.208ZM27.0988 40.656C27.7388 40.656 28.3708 39.864 28.9948 38.28C29.6348 36.68 30.0668 34.68 30.2908 32.28C29.2668 33.336 28.3468 34.592 27.5308 36.048C26.7148 37.488 26.3068 38.616 26.3068 39.432C26.3068 40.248 26.5708 40.656 27.0988 40.656ZM51.6121 42.288C51.0521 42.288 50.6201 42.12 50.3161 41.784C50.0121 41.448 49.8601 41 49.8601 40.44C49.8601 39.88 50.0681 39.4 50.4841 39C50.9001 38.584 51.3881 38.376 51.9481 38.376C52.5241 38.376 52.9641 38.544 53.2681 38.88C53.5721 39.2 53.7241 39.64 53.7241 40.2C53.7241 40.744 53.5081 41.232 53.0761 41.664C52.6601 42.08 52.1721 42.288 51.6121 42.288Z" fill="#8AA8BF"/>
<path d="M6.42172 41C5.03541 34.0081 6.28309 20.9715 22.3643 24.7607C20.978 17.9943 22.3643 5.27344 39 8.52131" stroke="#8AA8BF" stroke-width="3" stroke-linecap="round" stroke-linejoin="round"/>
<path d="M17.1146 35.0284C16.8329 35.2934 16.4677 35.4466 16.0995 35.4542C15.7313 35.4619 15.3902 35.3235 15.1512 35.0694C14.9122 34.8152 14.7949 34.4663 14.8251 34.0992C14.8553 33.7322 15.0305 33.3771 15.3123 33.1121C15.594 32.8471 15.9591 32.694 16.3273 32.6863C16.6955 32.6786 17.0367 32.8171 17.2757 33.0712C17.5147 33.3253 17.632 33.6743 17.6018 34.0413C17.5716 34.4084 17.3963 34.7635 17.1146 35.0284Z" stroke="#8AA8BF" stroke-width="1.5" stroke-linejoin="round"/>
<path d="M19.9374 33.4553C20.8764 32.5721 21.0464 31.1207 20.2498 30.2737C19.4532 29.4267 17.9937 29.5079 17.0555 30.3903C16.815 29.9194 16.396 29.5734 15.8805 29.4203C15.3651 29.2671 14.7905 29.3178 14.2694 29.5623C13.7484 29.8069 13.3185 30.2277 13.0642 30.7422C12.8098 31.2567 12.7494 31.8278 12.8947 32.3434C12.5905 32.3944 12.2936 32.5062 12.0226 32.6718C11.7515 32.8373 11.512 33.0532 11.3188 33.306C11.1255 33.5588 10.9828 33.8432 10.8992 34.1415C10.8157 34.4399 10.7933 34.7459 10.8332 35.0406C10.8732 35.3353 10.9747 35.6124 11.1316 35.8548C11.2884 36.0973 11.4972 36.2998 11.7451 36.45C11.9929 36.6002 12.2746 36.6949 12.5726 36.7281C12.8706 36.7612 13.1787 36.7323 13.4777 36.643C13.3702 36.936 13.3225 37.2417 13.3374 37.5412C13.3523 37.8407 13.4295 38.1276 13.5642 38.3842C13.6989 38.6408 13.8884 38.8616 14.1207 39.033C14.3531 39.2044 14.6235 39.3227 14.9152 39.3807C15.2069 39.4386 15.5137 39.4349 15.8166 39.3698C16.1195 39.3047 16.412 39.1796 16.6762 39.0023C16.9404 38.8249 17.1705 38.599 17.3524 38.3386C17.5343 38.0782 17.664 37.7888 17.7336 37.4883C18.1948 37.6479 18.7134 37.6402 19.2041 37.4666C19.6947 37.2929 20.1282 36.9636 20.4331 36.5329C20.738 36.1022 20.8961 35.5958 20.8815 35.0969C20.8668 34.5981 20.6803 34.1367 20.3525 33.7885C20.2276 33.6557 20.0892 33.5446 19.9374 33.4553Z" stroke="#8AA8BF" stroke-width="1.5" stroke-linejoin="round"/>
<path d="M34.8697 18.3041C34.6848 18.6033 34.3588 18.7984 33.9633 18.8463C33.5678 18.8943 33.1352 18.7912 32.7608 18.5598C32.3863 18.3285 32.1007 17.9877 31.9666 17.6125C31.8326 17.2373 31.8612 16.8585 32.046 16.5593C32.2309 16.2601 32.557 16.0651 32.9525 16.0171C33.348 15.9691 33.7806 16.0722 34.155 16.3036C34.5294 16.535 34.8151 16.8757 34.9491 17.2509C35.0832 17.6261 35.0546 18.0049 34.8697 18.3041Z" stroke="#8AA8BF" stroke-width="1.5" stroke-linejoin="round"/>
<path d="M36.1069 13.1447C37.355 13.916 37.8302 15.405 37.2139 16.4022C37.419 16.4762 37.6194 16.5736 37.8152 16.6946C38.3285 17.0115 38.7403 17.4587 38.9828 17.9625C39.2253 18.4663 39.2841 18.9967 39.1494 19.4663C39.0147 19.9359 38.6947 20.3168 38.2419 20.5463C37.7891 20.7758 37.2306 20.8401 36.6583 20.7288C36.7195 21.0408 36.7104 21.3482 36.6316 21.6319C36.5529 21.9156 36.4061 22.1695 36.2005 22.378C35.9948 22.5866 35.7346 22.7453 35.436 22.8442C35.1373 22.9432 34.8066 22.9805 34.4642 22.9536C34.1218 22.9267 33.775 22.8364 33.4453 22.6881C33.1157 22.5398 32.8101 22.3367 32.5475 22.0914C32.2849 21.8461 32.0709 21.5639 31.9187 21.2621C31.7665 20.9603 31.6794 20.6454 31.6626 20.3368C31.3792 20.4599 31.0586 20.5228 30.7206 20.5217C30.3825 20.5206 30.0344 20.4554 29.6975 20.3303C29.3607 20.2052 29.0424 20.0227 28.7623 19.7942C28.4822 19.5657 28.2462 19.296 28.069 19.0018C27.8919 18.7076 27.7772 18.3951 27.7321 18.0838C27.6871 17.7724 27.7126 17.4687 27.8071 17.1915C27.9016 16.9142 28.0631 16.6694 28.2816 16.4721C28.5 16.2747 28.7709 16.1291 29.0773 16.0442C28.6856 15.5377 28.4917 14.9525 28.5335 14.4035C28.5754 13.8545 28.85 13.3812 29.3034 13.0766C29.7569 12.7719 30.3565 12.6579 30.9846 12.7568C31.6128 12.8558 32.224 13.1606 32.6986 13.6114C33.3143 12.6151 34.8588 12.3735 36.1069 13.1447Z" stroke="#8AA8BF" stroke-width="1.5" stroke-linejoin="round"/>
<line x1="22.9" y1="51.1" x2="64.1" y2="51.1" stroke="#8AA8BF" stroke-width="1.8" stroke-linecap="round"/>
<line x1="6.9" y1="47.1" x2="57.1" y2="47.1" stroke="#8AA8BF" stroke-width="1.8" stroke-linecap="round"/>
</svg>
