<svg width="61" height="61" viewBox="0 0 61 61" fill="none" xmlns="http://www.w3.org/2000/svg">
<path d="M13.1563 44C12.8279 44 12.5535 43.8762 12.333 43.6285C12.1126 43.3809 12.0016 43.076 12 42.7139C11.9985 42.3518 12.1095 42.0478 12.333 41.8019C12.5566 41.5559 12.831 41.4338 13.1563 41.4355H47.8437C48.1721 41.4355 48.4465 41.5585 48.667 41.8044C48.889 42.0504 49 42.3553 49 42.719C49 43.0828 48.889 43.3868 48.667 43.6311C48.445 43.8753 48.1706 43.9974 47.8437 43.9974L13.1563 44ZM13.1563 31.7797C12.8279 31.7797 12.5535 31.6567 12.333 31.4108C12.1126 31.1648 12.0016 30.8599 12 30.4962C11.9985 30.1324 12.1095 29.8284 12.333 29.5841C12.5566 29.3399 12.831 29.2178 13.1563 29.2178H47.8437C48.1721 29.2178 48.4465 29.3407 48.667 29.5867C48.8874 29.8326 48.9984 30.1375 49 30.5013C49.0015 30.8651 48.8905 31.1691 48.667 31.4133C48.4434 31.6576 48.169 31.7797 47.8437 31.7797H13.1563ZM13.1563 19.5594C12.8279 19.5594 12.5535 19.4372 12.333 19.193C12.111 18.9471 12 18.6422 12 18.2784C12 17.9146 12.111 17.6106 12.333 17.3664C12.555 17.1221 12.8294 17 13.1563 17H47.8437C48.1721 17 48.4465 17.123 48.667 17.3689C48.8874 17.6149 48.9984 17.918 49 18.2784C49.0015 18.6388 48.8905 18.9428 48.667 19.1904C48.4434 19.4381 48.169 19.5611 47.8437 19.5594H13.1563Z" fill="#8AA8BF"/>
</svg>
